# xmcd CD database file
#
# Track frame offsets:
#	150
#	14347
#	38330
#	56142
#	75782
#	102657
#	121070
#	147137
#	165192
#	181605
#	198955
#	218857
#	234390
#	248022
#
# Disc length: 3492 seconds
#
# Revision: 1
# Processed by: cddbd v1.5.2PL0 Copyright (c) Steve Scherf et al.
# Submitted via: CDex 1.51
#
DISCID=a10da20e
DTITLE=Glenn Kaiser Band - Winter Sun
DYEAR=2000
DGENRE=Christian Rock
TTITLE0=Thief
TTITLE1=My Back Yard
TTITLE2=Choked Up
TTITLE3=Winter Sun
TTITLE4=Northbound
TTITLE5=Three Below Zero
TTITLE6=In The Soul Of A Man
TTITLE7=Unfinished Business
TTITLE8=In My Younger Days
TTITLE9=The Day Love Died
TTITLE10=The Toll
TTITLE11=On My Dyin' Bed
TTITLE12=Homesick Blues
TTITLE13=Nobodys Fault But Mine
EXTD=YEAR: 2000
EXTT0=
EXTT1=
EXTT2=
EXTT3=
EXTT4=
EXTT5=
EXTT6=
EXTT7=
EXTT8=
EXTT9=
EXTT10=
EXTT11=
EXTT12=
EXTT13=
PLAYORDER=
